<svg xmlns="http://www.w3.org/2000/svg" xmlns:xlink="http://www.w3.org/1999/xlink" version="1.2" viewBox="0 0 500 500" baseProfile="tiny-ps">
  <title>ESEGAMES_logo</title>
  <g>
    <rect width="500" height="500"/>
    <path d="M151.392,436.347c0-0.512,0-0.925,0-1.337c0-80.239-0.003-160.479,0.003-240.718   c0.001-12.946,8.514-24.149,20.853-27.311c2.278-0.584,4.69-0.907,7.04-0.909c55.663-0.05,111.325-0.039,166.988-0.039   c0.33,0,0.66,0,1.091,0c0,15.428,0,30.795,0,46.277c-46.953,0-93.918,0-140.985,0c0,19.403,0,38.69,0,58.098   c34.966,0,69.91,0,104.929,0c0.033,0.39,0.078,0.668,0.078,0.945c0,5.967,0.049,11.934-0.019,17.9   c-0.169,15.02-12.485,27.416-27.497,27.47c-25.286,0.091-50.572,0.032-75.858,0.037c-0.531,0-1.062,0-1.664,0   c0,23.143,0,46.155,0,69.285c46.991,0,93.951,0,141.015,0c0,16.818,0,33.519,0,50.301   C282.101,436.347,216.823,436.347,151.392,436.347z" fill="#FFFFFF"/>
    <path d="M243.424,99.861c2.014-2.018,3.749-3.755,5.483-5.494c9.574-9.603,19.139-19.217,28.725-28.809   c10.889-10.896,26.724-10.887,37.628,0.006c5.668,5.662,11.326,11.334,16.987,17.003c0.293,0.293,0.572,0.598,0.991,1.037   c-1.938,1.891-3.864,3.729-5.744,5.613c-21.103,21.147-42.196,42.305-63.32,63.432c-0.437,0.437-1.211,0.759-1.828,0.761   c-12.476,0.044-24.952,0.044-37.428,0c-0.617-0.002-1.388-0.327-1.825-0.764c-22.772-22.783-45.516-45.594-68.262-68.403   c-0.229-0.23-0.442-0.476-0.816-0.881c1.917-1.858,3.823-3.662,5.682-5.514c4.198-4.181,8.364-8.395,12.558-12.58   c10.496-10.473,26.513-10.5,37-0.033c11.133,11.112,22.236,22.255,33.342,33.395C242.915,98.949,243.114,99.391,243.424,99.861z" fill="#FFFFFF"/>
  </g>
</svg>